<svg xmlns="http://www.w3.org/2000/svg" version="1.1" xmlns:xlink="http://www.w3.org/1999/xlink" xmlns:svgjs="http://svgjs.dev/svgjs" width="2000" height="1237" viewBox="0 0 2000 1237"><g transform="matrix(1,0,0,1,-1.202062586230909,-0.7703444523073131)"><svg viewBox="0 0 396 245" data-background-color="#ffffff" preserveAspectRatio="xMidYMid meet" height="1237" width="2000" xmlns="http://www.w3.org/2000/svg" xmlns:xlink="http://www.w3.org/1999/xlink"><g id="tight-bounds" transform="matrix(1,0,0,1,0.23872474677654054,0.1562901693050236)"><svg viewBox="0 0 395.52 244.6911355454765" height="244.6911355454765" width="395.52"><g><svg viewBox="0 0 395.52 244.6911355454765" height="244.6911355454765" width="395.52"><g><svg viewBox="0 0 395.52 244.6911355454765" height="244.6911355454765" width="395.52"><g id="textblocktransform"><svg viewBox="0 0 395.52 244.6911355454765" height="244.6911355454765" width="395.52" id="textblock"><g><svg viewBox="0 0 395.52 244.6911355454765" height="244.6911355454765" width="395.52"><g transform="matrix(1,0,0,1,0,0)"><svg width="395.52" viewBox="36.04009246826172 -7.176520347595215 51.05438232421875 31.585132598876953" height="244.6911355454765" data-palette-color="#8dbdff"><path d="M36.04 20.903l2.72-4.354c0.959 0.511 1.93 0.969 2.913 1.373 0.99 0.411 2.011 0.75 3.064 1.02 1.053 0.269 2.158 0.47 3.315 0.603 1.157 0.127 2.385 0.175 3.684 0.145v0c1.573-0.036 2.907-0.171 4.002-0.403 1.102-0.232 1.995-0.536 2.68-0.912 0.691-0.376 1.188-0.821 1.489-1.335 0.308-0.507 0.456-1.054 0.442-1.64v0c-0.022-0.946-0.436-1.687-1.241-2.222-0.799-0.535-2.025-0.783-3.679-0.745v0c-0.72 0.017-1.482 0.081-2.286 0.193-0.797 0.118-1.605 0.24-2.422 0.366-0.817 0.132-1.621 0.254-2.412 0.366-0.798 0.112-1.546 0.176-2.246 0.191v0c-1.166 0.027-2.293-0.097-3.38-0.372-1.08-0.275-2.04-0.703-2.88-1.283-0.847-0.581-1.528-1.318-2.042-2.214-0.507-0.889-0.775-1.936-0.803-3.142v0c-0.016-0.713 0.064-1.422 0.241-2.126 0.177-0.704 0.475-1.381 0.894-2.031 0.412-0.65 0.951-1.259 1.618-1.828 0.667-0.569 1.479-1.064 2.436-1.487 0.951-0.422 2.056-0.761 3.317-1.017 1.261-0.263 2.698-0.412 4.311-0.45v0c1.166-0.027 2.344 0.009 3.534 0.109 1.183 0.106 2.337 0.263 3.461 0.47 1.125 0.207 2.208 0.462 3.249 0.765 1.047 0.309 2.019 0.654 2.915 1.033v0l-2.221 4.332c-0.741-0.31-1.537-0.591-2.39-0.845-0.853-0.254-1.745-0.47-2.676-0.648-0.931-0.179-1.891-0.316-2.88-0.413-0.989-0.09-1.993-0.124-3.013-0.101v0c-1.46 0.034-2.66 0.168-3.602 0.404-0.935 0.228-1.675 0.516-2.221 0.861-0.552 0.34-0.934 0.715-1.144 1.127-0.204 0.411-0.301 0.817-0.292 1.217v0c0.018 0.78 0.383 1.412 1.094 1.895 0.711 0.477 1.787 0.699 3.227 0.666v0c0.58-0.013 1.245-0.072 1.996-0.176 0.751-0.097 1.539-0.206 2.363-0.325 0.831-0.119 1.675-0.232 2.533-0.339 0.865-0.1 1.703-0.159 2.517-0.178v0c1.533-0.035 2.897 0.106 4.091 0.426 1.194 0.312 2.202 0.779 3.023 1.4 0.815 0.628 1.439 1.39 1.873 2.287 0.434 0.897 0.664 1.908 0.69 3.035v0c0.035 1.5-0.284 2.847-0.956 4.043-0.666 1.189-1.633 2.202-2.901 3.038-1.268 0.836-2.806 1.485-4.616 1.947-1.803 0.462-3.818 0.718-6.044 0.77v0c-1.473 0.034-2.915-0.026-4.325-0.18-1.404-0.148-2.753-0.376-4.047-0.686-1.294-0.31-2.53-0.688-3.707-1.135-1.177-0.446-2.266-0.945-3.266-1.495zM59.786 20.616l1.393-4.941c1.064 0.223 2.124 0.39 3.18 0.503 1.065 0.117 2.141 0.158 3.227 0.121 1.086-0.036 2.203-0.152 3.352-0.348 1.146-0.202 2.338-0.499 3.577-0.892v0c1.5-0.475 2.743-0.977 3.73-1.506 0.993-0.531 1.765-1.073 2.317-1.626 0.559-0.555 0.911-1.121 1.057-1.698 0.154-0.573 0.143-1.14-0.035-1.699v0c-0.286-0.902-0.89-1.498-1.814-1.785-0.917-0.29-2.164-0.185-3.74 0.314v0c-0.686 0.217-1.4 0.492-2.14 0.824-0.732 0.337-1.473 0.68-2.223 1.03-0.748 0.356-1.485 0.698-2.214 1.026-0.734 0.331-1.435 0.601-2.103 0.813v0c-1.112 0.352-2.228 0.548-3.348 0.588-1.114 0.038-2.155-0.104-3.125-0.426-0.976-0.32-1.835-0.838-2.579-1.554-0.736-0.711-1.286-1.642-1.65-2.792v0c-0.215-0.68-0.337-1.383-0.364-2.109-0.027-0.726 0.069-1.459 0.289-2.2 0.214-0.739 0.561-1.475 1.042-2.207 0.481-0.733 1.122-1.436 1.923-2.109 0.794-0.671 1.761-1.306 2.9-1.905 1.137-0.605 2.475-1.151 4.013-1.638v0c1.112-0.352 2.253-0.647 3.423-0.885 1.165-0.229 2.317-0.402 3.455-0.517 1.138-0.116 2.249-0.174 3.333-0.175 1.092 0.004 2.121 0.062 3.087 0.177v0l-0.919 4.78c-0.798-0.09-1.641-0.137-2.532-0.142-0.89-0.005-1.806 0.037-2.75 0.126-0.944 0.089-1.904 0.225-2.881 0.409-0.975 0.19-1.948 0.439-2.921 0.747v0c-1.392 0.441-2.507 0.906-3.345 1.395-0.834 0.481-1.464 0.964-1.89 1.449-0.435 0.481-0.696 0.948-0.784 1.401-0.081 0.452-0.06 0.869 0.061 1.251v0c0.236 0.744 0.762 1.248 1.58 1.513 0.816 0.259 1.911 0.171 3.284-0.264v0c0.553-0.175 1.175-0.418 1.867-0.728 0.694-0.304 1.42-0.628 2.178-0.973 0.764-0.347 1.543-0.692 2.337-1.033 0.802-0.338 1.591-0.63 2.366-0.876v0c1.462-0.463 2.811-0.708 4.047-0.736 1.234-0.034 2.332 0.132 3.294 0.499 0.958 0.375 1.771 0.932 2.439 1.671 0.668 0.74 1.172 1.646 1.512 2.721v0c0.453 1.43 0.524 2.813 0.213 4.149-0.307 1.328-0.952 2.571-1.935 3.728-0.983 1.158-2.279 2.211-3.887 3.162-1.602 0.948-3.464 1.758-5.587 2.43v0c-1.405 0.445-2.806 0.791-4.203 1.037-1.389 0.251-2.748 0.409-4.077 0.474-1.329 0.064-2.621 0.047-3.877-0.052-1.255-0.099-2.44-0.273-3.553-0.522z" opacity="1" transform="matrix(1,0,0,1,0,0)" fill="#8dbdff" class="undefined-text-0" data-fill-palette-color="primary" id="text-0"></path></svg></g></svg></g></svg></g></svg></g><g></g></svg></g><defs></defs></svg><rect width="395.52" height="244.6911355454765" fill="none" stroke="none" visibility="hidden"></rect></g></svg></g></svg>